<svg width="35" height="37" viewBox="0 0 35 37" fill="none" xmlns="http://www.w3.org/2000/svg">
<path d="M10.2523 0.129294C8.39031 0.222098 7.11875 0.536008 6.00714 0.997443C4.85668 1.47108 3.88157 2.10666 2.91136 3.13528C1.94115 4.1639 1.34369 5.19473 0.898487 6.41192C0.467633 7.5888 0.17573 8.93317 0.0934793 10.9013C0.0112285 12.8694 -0.00697169 13.502 0.0021284 18.5224C0.0112285 23.5427 0.0322287 24.172 0.12253 26.1442C0.211431 28.1108 0.507533 29.4537 0.944338 30.6284C1.39339 31.8437 1.99435 32.8735 2.96841 33.8988C3.94247 34.924 4.91758 35.5537 6.07259 36.0248C7.1856 36.4792 8.45856 36.789 10.3213 36.8752C12.184 36.9613 12.7836 36.9813 17.5345 36.9717C22.2855 36.9621 22.8836 36.9399 24.7502 36.8463C26.6167 36.7528 27.8813 36.4378 28.9936 35.9785C30.1441 35.5031 31.1195 34.8693 32.0894 33.84C33.0593 32.8106 33.6564 31.779 34.1012 30.5611C34.5324 29.3853 34.8254 28.0406 34.9062 26.0743C34.9878 24.101 35.007 23.471 34.9979 18.4514C34.9888 13.4318 34.9675 12.8025 34.8789 10.831C34.7904 8.85959 34.4939 7.52077 34.0575 6.34536C33.6077 5.13003 33.0075 4.10104 32.0338 3.07501C31.06 2.04898 30.0828 1.41858 28.9303 0.949747C27.8166 0.494597 26.5443 0.184385 24.6816 0.0993447C22.8189 0.0143045 22.2193 -0.00751014 17.4666 0.0021031C12.7139 0.0117163 12.1189 0.0331613 10.2523 0.129294ZM10.4567 33.5494C8.75047 33.471 7.82401 33.1715 7.2066 32.9208C6.38899 32.588 5.80659 32.1858 5.19128 31.542C4.57597 30.8983 4.19797 30.2808 3.87877 29.419C3.63902 28.7668 3.35026 27.7892 3.27046 25.9867C3.18366 24.0385 3.16546 23.4536 3.15531 18.5179C3.14516 13.5823 3.16301 12.9981 3.24386 11.0492C3.31666 9.24819 3.60191 8.26838 3.83887 7.61653C4.15387 6.75171 4.53327 6.13757 5.14403 5.48794C5.75479 4.8383 6.33754 4.43824 7.1541 4.10104C7.77081 3.84666 8.69622 3.54421 10.4018 3.45843C12.2474 3.366 12.8004 3.34751 17.4719 3.33679C22.1434 3.32607 22.6978 3.34455 24.544 3.43033C26.2489 3.50872 27.1768 3.8071 27.7931 4.05889C28.6111 4.39166 29.1931 4.79135 29.8081 5.43765C30.423 6.08396 30.8021 6.69736 31.1213 7.56181C31.3624 8.21144 31.6487 9.18866 31.7292 10.9915C31.8171 12.9412 31.837 13.5257 31.8454 18.4603C31.8538 23.3948 31.8374 23.9809 31.7565 25.929C31.682 27.7315 31.3992 28.7106 31.1615 29.3635C30.8465 30.2269 30.4668 30.8425 29.8557 31.4917C29.2446 32.141 28.6625 32.5411 27.8456 32.8783C27.2296 33.1323 26.3031 33.4355 24.599 33.5213C22.7534 33.6129 22.2004 33.6322 17.5272 33.6429C12.8539 33.6536 12.3027 33.6337 10.4571 33.5494M24.7232 8.60632C24.7239 9.04512 24.8478 9.47384 25.0791 9.83827C25.3105 10.2027 25.639 10.4865 26.023 10.6537C26.407 10.8209 26.8294 10.864 27.2366 10.7777C27.6439 10.6913 28.0177 10.4793 28.3109 10.1684C28.6041 9.85757 28.8034 9.46186 28.8837 9.03134C28.964 8.60081 28.9216 8.15481 28.7619 7.74973C28.6022 7.34466 28.3324 6.99871 27.9865 6.75565C27.6407 6.51258 27.2344 6.38331 26.819 6.38418C26.2622 6.38536 25.7286 6.62011 25.3356 7.03683C24.9426 7.45354 24.7223 8.01808 24.7232 8.60632ZM8.51456 18.5054C8.52436 23.7483 12.555 27.9888 17.517 27.9788C22.479 27.9689 26.496 23.7113 26.4865 18.4684C26.4771 13.2255 22.4454 8.98383 17.4827 8.99418C12.52 9.00453 8.50511 13.2632 8.51456 18.5054ZM11.6667 18.4987C11.6644 17.2799 12.0043 16.0877 12.6434 15.073C13.2825 14.0582 14.1921 13.2665 15.2571 12.7978C16.3222 12.3292 17.4949 12.2047 18.6269 12.4401C19.759 12.6755 20.7995 13.2603 21.6169 14.1204C22.4344 14.9805 22.992 16.0774 23.2193 17.2723C23.4467 18.4672 23.3335 19.7066 22.8941 20.8335C22.4547 21.9605 21.7088 22.9245 20.7507 23.6036C19.7927 24.2828 18.6655 24.6466 17.5118 24.649C16.7457 24.6507 15.9868 24.4929 15.2784 24.1848C14.57 23.8766 13.926 23.424 13.3833 22.8529C12.8405 22.2818 12.4095 21.6033 12.115 20.8562C11.8204 20.1091 11.6681 19.308 11.6667 18.4987Z" fill="white"/>
</svg>
