<svg width="63" height="62" viewBox="0 0 63 62" fill="none" xmlns="http://www.w3.org/2000/svg">
<path d="M5.20935 30.7739C5.20935 37.5754 7.95358 44.0983 12.8383 48.9076C17.7231 53.717 24.3482 56.4189 31.2563 56.4189C34.6769 56.4189 38.0639 55.7556 41.2241 54.4668C44.3842 53.178 47.2556 51.289 49.6743 48.9076C52.093 46.5263 54.0116 43.6992 55.3206 40.5878C56.6296 37.4764 57.3033 34.1416 57.3033 30.7739C57.3033 27.4061 56.6296 24.0714 55.3206 20.96C54.0116 17.8486 52.093 15.0215 49.6743 12.6401C44.7896 7.83078 38.1644 5.12891 31.2563 5.12891C24.3482 5.12891 17.7231 7.83078 12.8383 12.6401C10.4196 15.0215 8.50104 17.8486 7.19206 20.96C5.88308 24.0714 5.20935 27.4061 5.20935 30.7739ZM10.4187 30.7739C10.4187 25.3327 12.6141 20.1144 16.5219 16.2669C20.4297 12.4194 25.7299 10.2579 31.2563 10.2579C36.7828 10.2579 42.0829 12.4194 45.9907 16.2669C49.8985 20.1144 52.0939 25.3327 52.0939 30.7739C52.0939 36.2151 49.8985 41.4334 45.9907 45.2809C42.0829 49.1284 36.7828 51.2899 31.2563 51.2899C25.7299 51.2899 20.4297 49.1284 16.5219 45.2809C12.6141 41.4334 10.4187 36.2151 10.4187 30.7739ZM26.0469 43.5964L39.0704 30.7739L26.0469 17.9514L26.0469 43.5964Z" fill="#EF7D00"/>
</svg>
